<svg height="512" viewBox="0 0 512 512" width="512" xmlns="http://www.w3.org/2000/svg"><g id="flat"><path d="m488 144a8 8 0 0 1 -8-8 24.027 24.027 0 0 0 -24-24 8 8 0 0 1 0-16 40.045 40.045 0 0 1 40 40 8 8 0 0 1 -8 8z" fill="#dab982"/><path d="m387.32 88a7.972 7.972 0 0 1 -5.277-1.989l-1.822-1.6a28.27 28.27 0 0 0 -38.564 1.247 8 8 0 0 1 -11.314-11.314 44.307 44.307 0 0 1 60.437-1.954l1.822 1.6a8 8 0 0 1 -5.282 14.01z" fill="#dab982"/><path d="m232 408h-208v-96h72z" fill="#537cd8"/><path d="m48 368h16v16h-16z" fill="#4162aa"/><path d="m80 368h16v16h-16z" fill="#4162aa"/><path d="m112 368h16v16h-16z" fill="#4162aa"/><circle cx="232" cy="232" fill="#8fbdee" r="176"/><g fill="#5a87ea"><circle cx="232" cy="232" r="40"/><path d="m316.56 115.44-52.22 52.22a72.1 72.1 0 0 0 -64.68 0l-52.22-52.22a144.011 144.011 0 0 1 169.12 0z"/><path d="m115.44 147.44 52.22 52.22a72.1 72.1 0 0 0 0 64.68l-52.22 52.22a144.011 144.011 0 0 1 0-169.12z"/><path d="m147.44 348.56 52.22-52.22a72.1 72.1 0 0 0 64.68 0l52.22 52.22a144.011 144.011 0 0 1 -169.12 0z"/><path d="m348.56 316.56-52.22-52.22a72.1 72.1 0 0 0 0-64.68l52.22-52.22a144.011 144.011 0 0 1 0 169.12z"/></g><path d="m298.557 164.428a16 16 0 1 0 -18.3 19.347 24 24 0 1 0 18.3-19.347z" fill="#faebb8"/><path d="m345.933 207.863a16 16 0 1 0 23.616-12.3 24 24 0 1 0 -23.616 12.3z" fill="#f3ce91"/><path d="m411.791 171.1a16 16 0 1 0 -26.285 4.262 24 24 0 1 0 26.285-4.262z" fill="#faebb8"/><path d="m327.2 81.662a16 16 0 1 0 -15.2 21.859 24 24 0 1 0 15.2-21.859z" fill="#faebb8"/><path d="m454.868 86.453a16 16 0 1 0 -22.853-13.667 24 24 0 1 0 22.853 13.667z" fill="#f3ce91"/><path d="m442.9 202.783a16 16 0 1 0 26.534 2.237 24 24 0 1 0 -26.534-2.237z" fill="#f3ce91"/><path d="m313.842 408h-24l-15.217-187.631a19.616 19.616 0 0 1 19.602-20.369 19.615 19.615 0 0 1 19.615 19.616z" fill="#f16465"/><path d="m464.92 200a23.079 23.079 0 0 1 23.011 24.848l-14.089 183.152h-32v-184.922a23.078 23.078 0 0 1 23.078-23.078z" fill="#eaeae8"/><path d="m425.842 200a16 16 0 0 1 16 16v192a0 0 0 0 1 0 0h-32a0 0 0 0 1 0 0v-192a16 16 0 0 1 16-16z" fill="#f16465"/><path d="m393.842 200a16 16 0 0 1 16 16v192a0 0 0 0 1 0 0h-32a0 0 0 0 1 0 0v-192a16 16 0 0 1 16-16z" fill="#fbfdff"/><path d="m361.842 200a16 16 0 0 1 16 16v192a0 0 0 0 1 0 0h-32a0 0 0 0 1 0 0v-192a16 16 0 0 1 16-16z" fill="#f16465"/><path d="m329.842 200a16 16 0 0 1 16 16v192a0 0 0 0 1 0 0h-32a0 0 0 0 1 0 0v-192a16 16 0 0 1 16-16z" fill="#fbfdff"/><circle cx="361.842" cy="304" fill="#f3ce91" r="48"/><path d="m171.67 376v80h96l12.422-24.845a12.945 12.945 0 0 1 11.578-7.155 12.943 12.943 0 0 1 11.577 7.155l12.423 24.845h96v-80z" fill="#eaeae8"/><path d="m243.009 432h-40v-32h60.331z" fill="#f16465"/><path d="m379.009 432h-40l-19.669-32h59.669z" fill="#0a9acd"/><path d="m171.67 400h-20.394a20 20 0 0 0 -17.365 10.077l-21.111 36.946a6 6 0 0 0 5.21 8.977h18.337a20 20 0 0 0 17.15-9.71l18.173-30.29z" fill="#cbcbcb"/><path d="m411.67 400h20.393a20 20 0 0 1 17.365 10.077l21.112 36.946a6 6 0 0 1 -5.209 8.977h-18.337a20 20 0 0 1 -17.15-9.71l-18.174-30.29z" fill="#cbcbcb"/></g></svg>