<svg id="Capa_1" enable-background="new 0 0 512.004 512.004" height="512" viewBox="0 0 512.004 512.004" width="512" xmlns="http://www.w3.org/2000/svg"><g><g><g><g><g fill="#8ee16a"><path d="m189.469 380.364c-2.175-1.157-21.837-11.301-42.289-11.301-6.291 0-12.143.97-17.393 2.88-25.306 9.208-38.842 41.199-40.303 44.817-2.872 7.117.091 15.254 6.867 18.857 2.174 1.157 21.838 11.301 42.291 11.303h.004c6.285 0 12.135-.969 17.387-2.879 25.3-9.213 38.84-41.201 40.301-44.818 2.873-7.117-.089-15.255-6.865-18.859z"/><path d="m134.617 338.709c-2.348-3.117-23.701-30.516-50.532-32.862-1.274-.111-2.581-.167-3.886-.167-25.387 0-48.973 21.32-51.579 23.752-5.611 5.235-6.366 13.861-1.749 19.991 2.346 3.116 23.701 30.513 50.53 32.859 1.273.111 2.58.167 3.886.167h.004c25.386 0 48.97-21.319 51.576-23.75 5.611-5.235 6.366-13.86 1.75-19.99z"/><path d="m102.508 277.769c-.811-3.815-8.588-37.668-31.906-51.137-7.926-4.576-17.747-6.896-29.189-6.896-15.743 0-29.53 4.337-31.051 4.831-7.297 2.374-11.626 9.873-10.032 17.38.81 3.816 8.587 37.665 31.911 51.134 7.926 4.575 17.748 6.895 29.193 6.896h.001c15.736 0 29.519-4.333 31.038-4.826 7.299-2.374 11.629-9.874 10.035-17.382z"/><path d="m91.856 149.14c-15.449-22.063-49.85-26.856-53.722-27.33-7.614-.929-14.71 4.034-16.436 11.511-.879 3.801-8.137 37.77 7.309 59.825 15.445 22.058 49.846 26.857 53.717 27.332.617.075 1.23.112 1.838.112 6.894 0 13.014-4.751 14.602-11.622.877-3.801 8.138-37.769-7.308-59.828z"/><path d="m143.868 87.89c-4.675-26.522-33.828-45.406-37.138-47.472-6.508-4.064-15.034-2.561-19.76 3.484-2.402 3.072-23.339 30.787-18.664 57.314 4.68 26.515 33.828 45.403 37.136 47.469 2.462 1.538 5.212 2.279 7.937 2.279 4.48 0 8.89-2.004 11.828-5.764 2.403-3.072 23.338-30.793 18.661-57.31z"/></g><path d="m422.52 416.759c-1.46-3.617-14.998-35.607-40.301-44.816-5.25-1.91-11.103-2.88-17.395-2.88-20.453 0-40.114 10.144-42.289 11.301-6.776 3.605-9.738 11.742-6.865 18.859 1.461 3.617 15 35.606 40.308 44.82 5.247 1.908 11.097 2.877 17.385 2.877 20.452 0 40.117-10.146 42.292-11.303 6.775-3.604 9.738-11.741 6.865-18.858z" fill="#60a863"/><path d="m483.383 329.432c-2.605-2.432-26.191-23.752-51.578-23.752-1.305 0-2.612.056-3.888.167-26.828 2.347-48.184 29.745-50.53 32.861-4.617 6.131-3.861 14.757 1.75 19.992 2.606 2.431 26.193 23.749 51.579 23.749 1.306 0 2.612-.056 3.888-.167 26.827-2.347 48.182-29.743 50.529-32.859 4.616-6.13 3.861-14.756-1.75-19.991z" fill="#60a863"/><path d="m501.643 224.568c-1.52-.495-15.307-4.832-31.05-4.832-11.442 0-21.264 2.32-29.192 6.897-23.318 13.468-31.096 47.32-31.905 51.136-1.595 7.508 2.737 15.008 10.036 17.381 1.52.493 15.302 4.826 31.039 4.826 11.444 0 21.267-2.32 29.196-6.897 23.319-13.467 31.099-47.316 31.908-51.132 1.594-7.506-2.735-15.005-10.032-17.379z" fill="#60a863"/><path d="m490.307 133.32c-1.728-7.477-8.822-12.445-16.438-11.51-3.872.474-38.274 5.267-53.721 27.329-15.447 22.06-8.187 56.028-7.309 59.829 1.59 6.871 7.709 11.622 14.602 11.622.607 0 1.222-.037 1.839-.112 3.872-.475 38.272-5.274 53.718-27.331 15.447-22.057 8.187-56.026 7.309-59.827z" fill="#60a863"/><path d="m425.033 43.903c-4.727-6.045-13.252-7.547-19.762-3.484-3.308 2.066-32.457 20.949-37.136 47.472-4.674 26.518 16.259 54.238 18.661 57.312 2.94 3.76 7.348 5.764 11.828 5.764 2.725 0 5.475-.741 7.938-2.279 3.308-2.066 32.455-20.954 37.134-47.472 4.675-26.526-16.26-54.24-18.663-57.313z" fill="#60a863"/></g><path d="m445.154 235.824c0-33.79-9.021-66.958-26.091-95.918-16.559-28.096-40.231-51.579-68.456-67.912-7.172-4.151-16.347-1.701-20.496 5.47-4.148 7.17-1.699 16.347 5.471 20.495 49.082 28.403 79.572 81.23 79.572 137.865 0 87.757-71.395 159.152-159.151 159.152-87.758 0-159.153-71.396-159.153-159.152 0-56.643 30.49-109.469 79.574-137.863 7.172-4.148 9.621-13.325 5.473-20.496-4.147-7.17-13.322-9.619-20.494-5.473-28.227 16.329-51.9 39.812-68.461 67.911-17.07 28.961-26.092 62.13-26.092 95.921 0 86.97 59.005 160.406 139.082 182.412-8.73 8.876-16.727 20.176-23.742 33.73-3.809 7.356-.931 16.408 6.426 20.216 7.357 3.807 16.408.932 20.217-6.427 13.414-25.916 30.607-40.779 47.171-40.779s33.757 14.863 47.172 40.78c2.667 5.152 7.906 8.107 13.333 8.107 2.322 0 4.68-.541 6.884-1.682 7.357-3.809 10.233-12.859 6.426-20.217-7.016-13.554-15.013-24.854-23.743-33.729 80.075-22.005 139.078-95.442 139.078-182.411z" fill="#6ebd6b"/></g><path d="m375.853 195.528c-1.765-5.43-6.458-9.388-12.108-10.208l-65.154-9.466-29.137-59.04c-2.527-5.12-7.741-8.361-13.451-8.361-5.709 0-10.924 3.242-13.451 8.361l-29.138 59.04-65.153 9.466c-5.65.82-10.344 4.778-12.108 10.208-1.765 5.431-.294 11.392 3.796 15.377l47.144 45.956-11.129 64.889c-.966 5.627 1.349 11.314 5.968 14.67 2.613 1.899 5.707 2.865 8.818 2.865 2.387 0 4.783-.569 6.977-1.723l58.276-30.636 58.275 30.636c2.194 1.153 4.59 1.723 6.979 1.723h.051c8.271-.016 14.971-6.726 14.971-15 0-1.151-.131-2.273-.376-3.351l-10.99-64.073 47.145-45.956c4.088-3.986 5.559-9.946 3.795-15.377z" fill="#f2d231"/></g><path d="m445.154 235.824c0-33.79-9.021-66.958-26.091-95.918-16.559-28.096-40.231-51.579-68.456-67.912-7.172-4.151-16.347-1.701-20.496 5.47-4.148 7.17-1.699 16.347 5.471 20.495 49.082 28.403 79.572 81.23 79.572 137.865 0 87.757-71.395 159.152-159.151 159.152h-.001v30h.001c16.564 0 33.757 14.863 47.172 40.78 2.667 5.152 7.906 8.107 13.333 8.107 2.322 0 4.68-.541 6.884-1.682 7.357-3.809 10.233-12.859 6.426-20.217-7.016-13.554-15.013-24.854-23.743-33.729 80.076-22.005 139.079-95.442 139.079-182.411z" fill="#569759"/><path d="m321.256 339.285h.051c8.271-.016 14.971-6.726 14.971-15 0-1.151-.131-2.273-.376-3.351l-10.99-64.073 47.145-45.956c4.089-3.985 5.561-9.946 3.796-15.377-1.765-5.43-6.458-9.388-12.108-10.208l-65.154-9.466-29.137-59.04c-2.527-5.12-7.741-8.361-13.451-8.361v198.474l58.275 30.636c2.194 1.152 4.589 1.722 6.978 1.722z" fill="#e79d26"/></g></svg>