<svg id="Capa_1" enable-background="new 0 0 501 501" height="512" viewBox="0 0 501 501" width="512" xmlns="http://www.w3.org/2000/svg"><g><path d="m497.935 206.141c2.017 12.656 3.065 25.635 3.065 38.859 0 135.31-109.69 245-245 245s-245-109.69-245-245 109.69-245 245-245c30.573 0 59.838 5.6 86.826 15.83 2.675 1.015 154.598 187.101 155.109 190.311z" fill="#ffa90b"/><path d="m483 235.584c0 108.8-88.2 197-197 197s-197-88.2-197-197 88.2-197 197-197 197 88.2 197 197z" fill="#ffc14f"/><path d="m371.936 29.113c.58.312 1.159.626 1.736.943 83.246 45.671 78.47 166.841-8.088 205.872l-94.271 42.509c-10.069 4.541-21.913.059-26.454-10.011l-69.881-154.973c-4.54-10.069-.059-21.913 10.011-26.453l157.834-71.171c10.036 3.805 19.757 8.249 29.113 13.284z" fill="#5596fb"/><path d="m375.831 31.255c49.14 27.609 31.513 159.435 31.513 159.435l-114.324 51.551c-2.517 1.135-5.478.015-6.613-2.503l-62.422-138.431c-1.135-2.517-.015-5.478 2.503-6.613l145.443-65.584c1.307.704 2.607 1.419 3.9 2.145z" fill="#0a66ea"/><path d="m81.291 163.961 63.69 141.243c6.25 13.861.081 30.164-13.78 36.414l-33.093 14.922c-10.069 4.54-21.913.059-26.453-10.011l-69.882-154.972c-4.541-10.069-.059-21.913 10.011-26.453l33.094-14.923c13.86-6.251 30.163-.081 36.413 13.78z" fill="#0a4499"/><path d="m184.989 87.001 86.324 191.437-140.978 63.57c-10.069 4.54-21.913.059-26.453-10.011l-69.882-154.972c-4.541-10.069-.059-21.913 10.011-26.453z" fill="#0956c6"/><path d="m158.559 253.493c0 .001 0 .001-.001.002l-12.409 32.79c-.897 2.37-3.459 3.66-5.897 2.969l-73.061-20.714c-2.752-.78-4.246-3.749-3.234-6.424l3.054-8.071c2.215-5.852 7.903-9.651 14.158-9.454l38.545 1.214 28.927-76.44 36.524 13.822z" fill="#86befb"/><path d="m192.086 164.897-23.344 61.687c-3.334 8.811-13.18 13.251-21.991 9.916l-4.617-1.747c-8.811-3.334-13.251-13.18-9.916-21.991l23.344-61.686c3.334-8.811 13.18-13.251 21.991-9.916l4.617 1.747c8.811 3.333 13.25 13.179 9.916 21.99z" fill="#e9f3fe"/><path d="m497.935 206.141-154.651 154.651c-7.81 7.811-20.474 7.811-28.284 0l-120.208-120.208c-7.81-7.811-7.81-20.474 0-28.284l181.042-181.043c63.936 35.922 110.12 99.701 122.101 174.884z" fill="#e9f3fe"/><path d="m490.792 174.792-2.256 2.256c-1.953 1.953-5.118 1.953-7.071 0l-103.935-103.934c-1.953-1.953-1.953-5.118 0-7.071l20.615-20.615c43.805 31.256 76.885 76.575 92.647 129.364zm-79.328-37.744-48.934-48.934c-1.953-1.953-5.118-1.953-7.071 0l-117.929 117.929c-1.953 1.953-1.953 5.119 0 7.071l48.934 48.934c1.953 1.953 5.118 1.953 7.071 0l117.929-117.929c1.953-1.952 1.953-5.118 0-7.071zm17.072 17.071c-1.953-1.953-5.118-1.953-7.071 0l-117.929 117.929c-1.953 1.953-1.953 5.118 0 7.071l37.929 37.929c1.953 1.953 5.118 1.953 7.071 0l117.929-117.929c1.953-1.953 1.953-5.118 0-7.071z" fill="#c8e2fd"/><path d="m377.162 262.429c2.929 2.929 2.929 7.678 0 10.607l-26.095 26.095c-2.929 2.929-7.678 2.929-10.607 0-2.929-2.929-2.929-7.678 0-10.607l26.095-26.095c2.929-2.929 7.678-2.929 10.607 0zm62.46-158.079c-2.929 2.929-2.929 7.678 0 10.607s7.678 2.929 10.607 0l8.123-8.123c-2.86-4.181-5.847-8.269-8.955-12.258zm-16.171-38.195c-3.656-3.425-7.417-6.738-11.278-9.935l-10.341 10.341c-2.929 2.929-2.929 7.678 0 10.607s7.678 2.929 10.607 0zm-2.371 30.259c2.929 2.929 7.678 2.929 10.607 0l10.577-10.578c-3.255-3.806-6.625-7.51-10.104-11.109l-11.08 11.08c-2.929 2.93-2.929 7.678 0 10.607zm46.841 25.565-5.335 5.335c-2.929 2.929-2.929 7.677 0 10.606s7.678 2.929 10.607 0l2.164-2.164c-2.336-4.68-4.816-9.274-7.436-13.777zm-30.825 69.91-26.095 26.095c-2.929 2.929-2.929 7.678 0 10.607s7.678 2.929 10.607 0l26.095-26.095c2.929-2.929 2.929-7.678 0-10.607s-7.678-2.929-10.607 0zm-104.887-46.704c-2.929-2.929-7.678-2.929-10.607 0l-57.595 57.595c-2.929 2.929-2.929 7.678 0 10.607 2.929 2.929 7.678 2.929 10.607 0l57.595-57.595c2.929-2.929 2.929-7.678 0-10.607zm49.414 69.311-57.595 57.595c-2.929 2.929-2.929 7.678 0 10.607s7.678 2.929 10.607 0l57.595-57.595c2.929-2.929 2.929-7.678 0-10.607-2.93-2.929-7.678-2.929-10.607 0zm-9.812-68.912c-2.929-2.929-7.678-2.929-10.607 0l-77.197 77.197c-2.929 2.929-2.929 7.678 0 10.607 2.929 2.929 7.678 2.929 10.607 0l77.197-77.197c2.929-2.93 2.929-7.678 0-10.607z" fill="#86befb"/><path d="m105.356 322.356 127.871 127.871c5.694 5.694 5.694 14.927 0 20.621l-24.294 24.294c-7.81 7.81-20.474 7.81-28.284 0l-120.207-120.208c-7.81-7.81-7.81-20.474 0-28.284l24.294-24.294c5.693-5.694 14.926-5.694 20.62 0z" fill="#3493f8"/><path d="m194.792 212.299 148.492 148.492-111.177 111.178c-7.81 7.81-20.474 7.81-28.284 0l-120.208-120.208c-7.81-7.81-7.81-20.474 0-28.284z" fill="#55a4f9"/><path d="m229 302.195v110.235c0 2.534-1.94 4.647-4.465 4.864l-75.664 6.485c-2.85.244-5.298-2.003-5.298-4.864v-8.629c0-6.257 3.976-11.824 9.895-13.853l36.48-12.507v-81.731z" fill="#c8e2fd"/><path d="m207.006 265.584h4.937c9.421 0 17.058 7.637 17.058 17.058v65.956c0 9.421-7.637 17.058-17.058 17.058h-4.937c-9.421 0-17.058-7.637-17.058-17.058v-65.956c0-9.421 7.637-17.058 17.058-17.058z" fill="#fff5f5"/></g></svg>