<svg height="512" viewBox="0 0 59 59" width="512" xmlns="http://www.w3.org/2000/svg"><g id="100---Movies" fill="none"><path id="Shape" d="m43 57.91v.09h-16.92c-.3824923-.001757-.7304753-.221544-.8964082-.5661738s-.1207435-.7537221.1164082-1.0538262l2.4-3c.1886474-.2387374.475728-.3785972.78-.38h5.53z" fill="#a56a43"/><path id="Shape" d="m55.21 26.4 2.63 8.56c.0280041.0974908.0414823.1985776.04.3.0004144.4305441-.2791221.811362-.69.94-.5437187.1573377-1.0256426.4786203-1.38.92l-24.28 11.1-19.65 6.03c-.0940766.0279731-.1918635.041461-.29.04-.4360031.0005318-.8213508-.2834086-.95-.7-.4862226-1.5687879-2.14911558-2.4494059-3.72-1.97-.2493031.077112-.51903702.0519304-.74975843-.0699956-.23072141-.1219259-.40349364-.330589-.48024157-.5800044l-5.53-18.02c-.02800408-.0974908-.04148232-.1985776-.04-.3-.00041442-.4305441.27912213-.811362.69-.94.5685506-.1670861 1.07152462-.505895 1.44-.97z" fill="#f29c1f"/><path id="Shape" d="m33.31 36.93-18.3 8.81c-.1336805.0661125-.2808651.1003415-.43.1-.3882694.0027797-.7430498-.2194455-.91-.57-.5030682-1.0390348-1.5555866-1.6992862-2.71-1.7-.4463732-.0019054-.8873893.0972378-1.29.29-.49731215.2387632-1.09418732.0338657-1.34-.46l-6.08-12.66-2.15-4.47c-.06717911-.1332962-.10146818-.2807393-.1-.43.0010889-.3846594.22271622-.7345973.57-.9 1.03629312-.5009343 1.69618002-1.54899 1.7-2.7-.00159737-.450307-.10411028-.8945297-.3-1.3-.11650594-.239847-.13239741-.5162909-.04414346-.7679085.08825395-.2516177.27334349-.4575683.51414346-.5720915l40.55-19.5c.1336805-.06611254.2808651-.10034153.43-.1.3882694-.00277966.7430498.21944547.91.57.5009343 1.03629312 1.54899 1.69618002 2.7 1.7.450307-.00159737.8945297-.10411028 1.3-.3.239847-.11650594.5162909-.13239741.7679085-.04414346.2516177.08825395.4575683.27334349.5720915.51414346l8.23 17.12c.0661125.1336805.1003415.2808651.1.43.0027797.3882694-.2194455.7430498-.57.91-.7179127.3428001-1.2694141.9578278-1.5322266 1.7087207-.2628125.7508928-.2152196 1.5756036.1322266 2.2912793.1152722.2385095.1304658.5131907.042202.7629586s-.2726673.4539147-.512202.5670414l-.35.17-9.66 4.65" fill="#f0c419"/><path id="Shape" d="m13.515 26.481.9-.433c.4705306-.2536847.6583427-.8325655.4263697-1.3141705-.2319731-.4816051-.8016914-.6956088-1.2933697-.4858295l-1.8.866-1.8.867c-.41937378.2031115-.64288186.6689551-.53888976 1.1231734.10399209.4542184.50791928.7764123.97388976.7768266.1500545-.0000195.2981332-.0342178.433-.1l.9-.433 3.467 7.21c.1665476.345726.5162495.5656496.9.566.1500665.000086.2981687-.0341177.433-.1.2389748-.115088.4224367-.3204033.5100182-.5707704.0875816-.2503671.0721073-.5252728-.0430182-.7642296z" fill="#e57e25"/><path id="Shape" d="m17.587 23.412c-.2536847-.4705306-.8325655-.6583427-1.3141705-.4263697-.4816051.2319731-.6956088.8016914-.4858295 1.2933697l3.9 8.112c.1665476.345726.5162495.5656496.9.566.1500545-.0000195.2981332-.0342178.433-.1.2389748-.115088.4224367-.3204033.5100182-.5707704.0875816-.2503671.0721073-.5252728-.0430182-.7642296z" fill="#e57e25"/><path id="Shape" d="m47.622 18.955-3.467-7.209.9-.434c.4734118-.2524404.6632568-.8334876.430219-1.31674562-.2330377-.48325803-.8059096-.69650619-1.298219-.48325438l-3.6 1.733c-.3386157.1444737-.5704654.4633163-.6035263.8299772-.033061.3666609.1380142.7218343.4453247.9245496s.7011502.2201842 1.0252016.0454732l.9-.433 3.467 7.209c.2536847.4705306.8325655.6583427 1.3141705.4263697.4816051-.2319731.6956088-.8016914.4858295-1.2933697z" fill="#e57e25"/><path id="Shape" d="m27.18 24.9c-.2391515.1149077-.4228342.3201462-.5106097.5705312-.0877754.2503851-.0724473.5253892.0426097.7644688.2630176.4861994.2373105 1.0776544-.0669 1.5391998-.3042105.4615453-.8376156.71837-1.3881309.6683593s-1.0289088-.3987506-1.2449691-.9075591l-1.734-3.605c-.3579918-.7456398-.0448425-1.6403521.7-2 .7456398-.3579918 1.6403521-.0448425 2 .7.1444737.3386157.4633163.5704654.8299772.6035263.3666609.033061.7218343-.1380142.9245496-.4453247s.2201842-.7011502.0454732-1.0252016c-.5253658-1.1548626-1.6345738-1.9349828-2.8990536-2.0389416-1.2644799-.1039588-2.4862072.4845243-3.1931369 1.538074-.7069297 1.0535498-.7883529 2.4071746-.2128095 3.5378676l1.733 3.6c.400215.8396458 1.1207716 1.4834631 2 1.787.3727382.131157.7648616.1987645 1.16.2 1.2038247-.0000671 2.3231325-.6187948 2.9635117-1.6381615s.7119482-2.2962973.1894883-3.3808385c-.114891-.2401872-.3208228-.4246403-.5721644-.5124879-.2513417-.0878475-.5273389-.0718356-.7668356.0444879z" fill="#e57e25"/><path id="Shape" d="m36.248 23.65-5.01-1.771 1.715-5.079c.12822-.3419693.0598153-.7266407-.1784384-1.0034413s-.6084581-.4017005-.9657031-.32581c-.3572451.0758905-.6447049.3404998-.7498585.6902513l-1.5 4.455-1.155-2.4c-.1444737-.3386157-.4633163-.5704654-.8299772-.6035263-.3666609-.033061-.7218343.1380142-.9245496.4453247s-.2201842.7011502-.0454732 1.0252016l3.9 8.111c.166262.3461154.5160226.5664646.9.567.1500665.000086.2981687-.0341177.433-.1.2391515-.1149077.4228342-.3201462.5106097-.5705312.0877754-.2503851.0724473-.5253892-.0426097-.7644688l-1.155-2.4 4.417 1.606c.3375931.130357.7192734.0681497.998003-.1626574.2787295-.230807.4110114-.5941954.3458855-.9501739-.0651258-.3559785-.3174963-.6489952-.6598885-.7661687z" fill="#e57e25"/><path id="Shape" d="m41.781 20.654-2.7 1.3-1.3-2.7 1.8-.866c.4705306-.2536847.6583427-.8325655.4263697-1.3141705-.2319731-.4816051-.8016914-.6956088-1.2933697-.4858295l-1.8.866-.866-1.8 2.7-1.3c.3386157-.1444737.5704654-.4633163.6035263-.8299772.033061-.3666609-.1380142-.7218343-.4453247-.9245496s-.7011502-.2201842-1.0252016-.0454732l-3.6 1.733c-.2389748.115088-.4224367.3204033-.5100182.5707704-.0875816.2503671-.0721073.5252728.0430182.7642296l1.733 3.605 2.167 4.506c.1665476.345726.5162495.5656496.9.566.1500665.000086.2981687-.0341177.433-.1l3.6-1.733c.4705306-.2536847.6583427-.8325655.4263697-1.3141705-.2319731-.4816051-.8016914-.6956088-1.2933697-.4858295z" fill="#e57e25"/><path id="Shape" d="m51.155 23.914-1.876.9c-.3240514.174711-.7178911.1572421-1.0252016-.0454732s-.4783857-.5578887-.4453247-.9245496c.0330609-.3666609.2649106-.6855035.6035263-.8299772l1.845-.887c.5000229-.242511 1.1020829-.0373646 1.35.46.1180479.2355808.1366779.5086655.0517175.7580956-.0849604.24943-.2664118.4543634-.5037175.5689044zm-5.565 2.677-1.846.887c-.3240514.174711-.7178911.1572421-1.0252016-.0454732s-.4783857-.5578887-.4453247-.9245496c.0330609-.3666609.2649106-.6855035.6035263-.8299772l1.846-.888c.4916783-.2097793 1.0613966.0042244 1.2933697.4858295.231973.481605.0441609 1.0604858-.4263697 1.3141705zm-5.535 2.661-1.845.887c-.3240514.174711-.7178911.1572421-1.0252016-.0454732s-.4783857-.5578887-.4453247-.9245496c.0330609-.3666609.2649106-.6855035.6035263-.8299772l1.845-.887c.4916783-.2097793 1.0613966.0042244 1.2933697.4858295.231973.481605.0441609 1.0604858-.4263697 1.3141705zm-5.534 2.662-1.846.887c-.4916783.2097793-1.0613966-.0042244-1.2933697-.4858295-.231973-.481605-.0441609-1.0604858.4263697-1.3141705l1.846-.888c.4916783-.2097793 1.0613966.0042244 1.2933697.4858295.231973.481605.0441609 1.0604858-.4263697 1.3141705zm-5.535 2.661-1.845.887c-.3240514.174711-.7178911.1572421-1.0252016-.0454732s-.4783857-.5578887-.4453247-.9245496c.0330609-.3666609.2649106-.6855035.6035263-.8299772l1.845-.887c.3240514-.174711.7178911-.1572421 1.0252016.0454732s.4783857.5578887.4453247.9245496c-.0330609.3666609-.2649106.6855035-.6035263.8299772zm-5.534 2.661-1.846.888c-.4916783.2097793-1.0613966-.0042244-1.2933697-.4858295-.231973-.481605-.0441609-1.0604858.4263697-1.3141705l1.846-.887c.3240514-.174711.7178911-.1572421 1.0252016.0454732s.4783857.5578887.4453247.9245496c-.0330609.3666609-.2649106.6855035-.6035263.8299772zm-5.535 2.664-1.845.887c-.4916783.2097793-1.0613966-.0042244-1.2933697-.4858295-.231973-.481605-.0441609-1.0604858.4263697-1.3141705l1.845-.887c.3240514-.174711.7178911-.1572421 1.0252016.0454732s.4783857.5578887.4453247.9245496c-.0330609.3666609-.2649106.6855035-.6035263.8299772zm-5.556.141c-.4139339.19641-.908397.0863919-1.2-.267-.2066838-.2494513-.3816821-.5235369-.521-.816l-.57-1.186c-.174711-.3240514-.15724208-.7178911.0454732-1.0252016.2027153-.3073105.5578887-.4783857.9245496-.4453247.3666609.0330609.6855035.2649106.8299772.6035263l.572 1.19c.0698446.1463257.1571463.2836581.26.409.1952798.2371858.2706924.5509728.20452.8509937-.0661725.3000208-.2665847.552972-.54352.6860063zm40.368-19.569c-.0574963.0274904-.11742.0495851-.179.066-.2566042.0679482-.5296954.0310843-.7590994-.102469s-.3962954-.3528362-.4639006-.609531c-.032786-.1268086-.0780051-.2500724-.135-.368l-.634-1.319c-.2066464-.4911019.0080503-1.0579806.4881802-1.2889765.48013-.2309958 1.0570549-.0449751 1.3118198.4229765l.642 1.318c.1115346.2327607.2009283.4754964.267.725.1214384.4645223-.104404.9497896-.538 1.156zm-43.1 14.076c-.49735203.2390643-1.09435022.0300702-1.334-.467l-.895-1.845c-.174711-.3240514-.15724208-.7178911.04547323-1.0252016s.55788871-.4783857.92454961-.4453247c.36666089.0330609.68550351.2649106.82997716.6035263l.887 1.845c.2398934.4957458.0337915 1.0921446-.461 1.334zm40.493-19.63c-.2390796.115057-.5140837.1303851-.7644688.0426097-.250385-.0877755-.4556235-.2714582-.5705312-.5106097l-.887-1.845c-.2066464-.4911019.0080503-1.0579806.4881802-1.2889765.48013-.2309958 1.0570549-.0449751 1.3118198.4229765l.887 1.844c.115057.2390796.1303851.5140837.0426097.7644688-.0877755.250385-.2714582.4556235-.5106097.5705312zm-43.157 14.096c-.23907964.115057-.51408374.1303851-.76446878.0426097-.25038503-.0877755-.45562353-.2714582-.57053122-.5106097l-.63-1.302c-.11602956-.2409666-.2078143-.4928722-.274-.752-.08788735-.3472622.01616355-.715033.27295773-.9647767.25679419-.2497438.6273185-.3435184.97200002-.246s.61115492.3715145.69904225.7187767c.03265975.1295616.07822071.2555242.136.376l.626 1.3c.11607439.2392697.13206116.5149197.04442564.7660039s-.27167437.4569196-.51142564.5719961zm40.493-19.63c-.2390796.11505702-.5140837.13038508-.7644688.04260965-.250385-.08777542-.4556235-.2714582-.5705312-.51060965l-.564-1.174c-.0722486-.14926623-.1622313-.28927666-.268-.417-.3542907-.42387855-.2978785-1.05470933.126-1.409s1.0547093-.29787855 1.409.126c.2115895.25484432.3912536.53458302.535.833l.565 1.174c.115057.23907964.1303851.51408374.0426097.76446878-.0877755.25038503-.2714582.45562353-.5106097.57053122zm-4.68-2.524-1.845.887c-.3240514.174711-.7178911.15724208-1.0252016-.04547323s-.4783857-.55788871-.4453247-.92454961c.0330609-.36666089.2649106-.68550351.6035263-.82997716l1.845-.887c.4916783-.20977929 1.0613966.00422442 1.2933697.48582945.231973.48160503.0441609 1.06048589-.4263697 1.31417055zm-5.535 2.662-1.845.887c-.4916783.2097793-1.0613966-.0042244-1.2933697-.48582945-.231973-.48160503-.0441609-1.06048589.4263697-1.31417055l1.845-.887c.3240514-.174711.7178911-.15724208 1.0252016.04547323s.4783857.55788871.4453247.92454961c-.0330609.36666089-.2649106.68550351-.6035263.82997716zm-5.534 2.661-1.845.887c-.3240514.174711-.7178911.1572421-1.0252016-.0454732s-.4783857-.5578887-.4453247-.9245496c.0330609-.3666609.2649106-.6855035.6035263-.8299772l1.845-.887c.3240514-.174711.7178911-.1572421 1.0252016.0454732s.4783857.5578887.4453247.9245496c-.0330609.3666609-.2649106.6855035-.6035263.8299772zm-5.535 2.662-1.845.887c-.4916783.2097793-1.0613966-.0042244-1.2933697-.4858295-.231973-.481605-.0441609-1.0604858.4263697-1.3141705l1.845-.887c.3240514-.174711.7178911-.1572421 1.0252016.0454732s.4783857.5578887.4453247.9245496c-.0330609.3666609-.2649106.6855035-.6035263.8299772zm-5.534 2.661-1.845.887c-.4916783.2097793-1.0613966-.0042244-1.2933697-.4858295-.231973-.481605-.0441609-1.0604858.4263697-1.3141705l1.845-.887c.3240514-.174711.7178911-.1572421 1.0252016.0454732s.4783857.5578887.4453247.9245496c-.0330609.3666609-.2649106.6855035-.6035263.8299772zm-5.535 2.661-1.845.888c-.4911019.2066464-1.0579806-.0080503-1.2889765-.4881802-.2309958-.48013-.0449751-1.0570549.4229765-1.3118198l1.844-.887c.3240514-.174711.7178911-.1572421 1.0252016.0454732s.4783857.5578887.4453247.9245496c-.0330609.3666609-.2649106.6855035-.6035263.8299772zm-5.534 2.662-1.829.879c-.49854954.2408459-1.09802099.0340238-1.342-.463-.11682276-.2372927-.13394164-.5114389-.04754648-.7614214s.26913486-.4550566.50754648-.5695786l1.84-.888c.49167832-.2097793 1.06139656.0042244 1.29336965.4858295.23197305.481605.04416095 1.0604858-.42636965 1.3141705z" fill="#f9eab0"/><circle id="Oval" cx="44.5" cy="44.5" fill="#bdc3c7" r="13.5"/><path id="Shape" d="m44.5 59c-8.0081289 0-14.5-6.4918711-14.5-14.5s6.4918711-14.5 14.5-14.5 14.5 6.4918711 14.5 14.5c-.0093678 8.0042454-6.4957546 14.4906322-14.5 14.5zm0-27c-6.9035594 0-12.5 5.5964406-12.5 12.5s5.5964406 12.5 12.5 12.5 12.5-5.5964406 12.5-12.5c-.0077154-6.900361-5.599639-12.4922846-12.5-12.5z" fill="#95a5a5"/><g fill="#56595e"><circle id="Oval" cx="44.5" cy="36.5" r="2.5"/><circle id="Oval" cx="44.5" cy="52.5" r="2.5"/><circle id="Oval" cx="44.5" cy="36.5" r="2.5"/><circle id="Oval" cx="44.5" cy="52.5" r="2.5"/><circle id="Oval" cx="44.5" cy="44.5" r="2.5"/><circle id="Oval" cx="44.5" cy="44.5" r="2.5"/><circle id="Oval" cx="37.572" cy="40.5" r="2.5"/><circle id="Oval" cx="51.428" cy="48.5" r="2.5"/><circle id="Oval" cx="37.572" cy="40.5" r="2.5"/><circle id="Oval" cx="51.428" cy="48.5" r="2.5"/><circle id="Oval" cx="51.428" cy="40.5" r="2.5"/><circle id="Oval" cx="37.572" cy="48.5" r="2.5"/><circle id="Oval" cx="51.428" cy="40.5" r="2.5"/><circle id="Oval" cx="37.572" cy="48.5" r="2.5"/></g></g></svg>